<svg width="1440" height="839" viewBox="0 0 1440 839" fill="none" xmlns="http://www.w3.org/2000/svg">
<path d="M192.485 885.452L312.726 678.836C327.091 654.152 327.618 623.884 312.636 599.293L194.453 391.304C180.383 367.243 153.923 351.89 126.02 351.598L-112.936 351.139C-142.283 351.233 -168.358 366.676 -182.723 391.361L-303.496 598.891C-317.861 623.575 -318.388 653.842 -303.406 678.433L-184.691 885.508C-170.621 909.569 -144.161 924.923 -116.258 925.214L124.143 925.288C152.045 925.58 178.12 910.136 192.485 885.452Z" fill="#5632B2" fill-opacity="0.3"/>
<path d="M1466.5 84.4266L1408.6 -4.08124C1401.68 -14.6552 1389.8 -20.8764 1377.09 -19.8485L1271.27 -14.5216C1258.95 -13.7487 1247.62 -6.35477 1241.96 4.6005L1194.3 98.8269C1188.51 110.429 1189.44 123.789 1196.36 134.363L1254.52 223.262C1261.44 233.836 1273.32 240.057 1286.03 239.03L1391.59 233.311C1403.91 232.538 1415.25 225.144 1420.91 214.189L1468.7 119.316C1474.36 108.361 1473.42 95.0006 1466.5 84.4266Z" fill="#5632B2" fill-opacity="0.6"/>
<path opacity="0.72" d="M1388.73 1118.49L1594.05 913.471C1618.58 888.978 1628.61 853.643 1618.7 820.153L1544.81 539.549C1535.8 506.963 1509.54 480.747 1476.91 471.747L1196.8 397.066C1162.35 388.07 1126.96 398.092 1102.43 422.585L896.204 628.509C871.675 653.002 861.637 688.337 871.556 721.827L946.347 1001.52C955.36 1034.11 981.616 1060.33 1014.25 1069.33L1296.18 1144C1328.81 1153 1364.2 1142.98 1388.73 1118.49Z" fill="#5632B2"/>
</svg>
