<svg width="142" height="56" fill="none" xmlns="http://www.w3.org/2000/svg"><path d="M.571 46.5a.97.97 0 0 0-.144 1.389l5.745 7.065c.353.433.99.514 1.421.181a.97.97 0 0 0 .144-1.388l-5.107-6.28 6.26-4.826a.97.97 0 0 0 .145-1.388c-.353-.433-.989-.515-1.421-.182L.57 46.501ZM89.613 8.172l-.654.736.654-.736ZM36.723 47.14l.248.966-.248-.966Zm70.565-20.496.292.955-.292-.955Zm-58.897-3.956 1.004.136-1.004-.136ZM1.209 47.285l-.101.982h.003l.007.002.03.003.113.014.439.053c.382.044.94.107 1.647.181l.156-1.969a130.965 130.965 0 0 1-2.157-.243l-.026-.003h-.007l-.001-.001-.103.981Zm6.616 1.645c1.354.107 2.864.212 4.48.301l.055-1.977a185.94 185.94 0 0 1-4.43-.298l-.105 1.974Zm8.968.492a145.3 145.3 0 0 0 4.491.062l-.063-1.98c-1.5.003-2.985-.02-4.427-.061v1.979Zm8.985-.03a88.195 88.195 0 0 0 4.492-.293l-.247-1.971a86.357 86.357 0 0 1-4.387.285l.142 1.978Zm8.971-.86a44.65 44.65 0 0 0 2.222-.427l-.495-1.933c-.684.15-1.392.285-2.121.407l.394 1.952Zm2.222-.427c.622-.136 1.257-.28 1.902-.429l-.518-1.928a144 144 0 0 1-1.88.424l.496 1.933Zm5.711-1.354c1.235-.313 2.499-.646 3.783-.999l-.596-1.908c-1.272.35-2.523.68-3.746.99l.559 1.917Zm7.553-2.07c1.234-.364 2.48-.743 3.734-1.137l-.667-1.887a215.2 215.2 0 0 1-3.7 1.126l.633 1.898Zm7.45-2.344c1.23-.413 2.462-.84 3.69-1.28l-.742-1.862a192.5 192.5 0 0 1-3.652 1.267l.703 1.875Zm7.35-2.638c1.222-.469 2.433-.95 3.629-1.443l-.83-1.828c-1.179.486-2.375.961-3.582 1.425l.783 1.846Zm7.215-2.981a116.144 116.144 0 0 0 3.536-1.648l-.94-1.778c-1.13.55-2.291 1.09-3.477 1.62l.881 1.806Zm7.02-3.43a75.445 75.445 0 0 0 3.387-1.936l-1.1-1.691a73.367 73.367 0 0 1-3.3 1.885l1.013 1.742Zm6.678-4.088a40.139 40.139 0 0 0 3.102-2.415l-1.362-1.5a38.267 38.267 0 0 1-2.953 2.298l1.213 1.617Zm5.913-5.217c.931-1.094 1.696-2.221 2.254-3.38l-1.832-.887c-.473.983-1.14 1.976-1.988 2.972l1.566 1.295Zm3.292-7.45c.037-1.403-.263-2.809-.928-4.202l-1.825.796c.534 1.119.762 2.216.734 3.298l2.019.108Zm-3.367-7.655a20.488 20.488 0 0 0-1.52-1.442l-1.307 1.47c.505.436.96.867 1.364 1.296l1.463-1.324Zm-1.52-1.442a29.59 29.59 0 0 0-1.556-1.252l-1.197 1.56c.486.364.968.752 1.446 1.163l1.308-1.471Zm-4.925-3.418a25.4 25.4 0 0 0-3.67-1.632l-.634 1.861c1.13.399 2.255.895 3.366 1.498l.938-1.727Zm-7.555-2.653a24.646 24.646 0 0 0-3.982-.373l.033 1.98c1.21.015 2.428.126 3.646.341l.303-1.948Zm-7.946-.111a26.66 26.66 0 0 0-3.85.853l.642 1.895a24.62 24.62 0 0 1 3.56-.79l-.352-1.958Zm-7.51 2.243a28.45 28.45 0 0 0-3.413 1.872l1.139 1.666a26.504 26.504 0 0 1 3.178-1.742l-.904-1.796Zm-6.526 4.18a27.34 27.34 0 0 0-2.758 2.712l1.545 1.32a25.418 25.418 0 0 1 2.564-2.522l-1.351-1.51Zm-5.09 5.796a23.116 23.116 0 0 0-1.818 3.425l1.868.807c.46-1.08 1.02-2.13 1.669-3.143l-1.719-1.089Zm-3.007 7.14c-.139.64-.246 1.286-.32 1.937l2.009.273c.065-.585.162-1.167.287-1.745l-1.976-.466Zm-.32 1.937c-.086.773-.105 1.51-.058 2.213l2.016-.074a10.42 10.42 0 0 1 .05-1.866l-2.007-.273Zm1.35 6.547c.843 1.277 2.014 2.293 3.42 3.088l.971-1.708c-1.171-.662-2.074-1.466-2.703-2.42l-1.687 1.04Zm7.56 4.693c1.314.338 2.735.58 4.24.74l.161-1.968a27.763 27.763 0 0 1-3.942-.686l-.458 1.914Zm8.474.986a67.648 67.648 0 0 0 4.206-.072l-.155-1.978c-1.406.066-2.77.09-4.078.07l.027 1.98Zm8.37-.366c1.359-.126 2.74-.28 4.137-.46l-.32-1.963a115.58 115.58 0 0 1-4.064.451l.248 1.972Zm8.249-1.05c1.357-.213 2.72-.445 4.084-.693l-.424-1.947c-1.348.245-2.696.475-4.036.686l.376 1.955Zm8.147-1.473c1.356-.274 2.705-.56 4.04-.853l-.497-1.933a235.77 235.77 0 0 1-4.006.846l.463 1.94Zm8.066-1.77a313.74 313.74 0 0 0 4.006-.973l-.551-1.92a311.28 311.28 0 0 1-3.98.966l.525 1.926Zm7.992-1.993c.675-.177 1.338-.352 1.986-.526l-.584-1.91c-.645.172-1.305.346-1.976.522l.574 1.914Zm1.986-.526a86.67 86.67 0 0 0 1.836-.513l-.626-1.9c-.591.173-1.189.34-1.794.502l.584 1.911Zm5.468-1.657a89.98 89.98 0 0 0 3.571-1.294l-.787-1.845c-1.132.437-2.296.86-3.493 1.266l.709 1.873Zm7.083-2.736a94.013 94.013 0 0 0 3.445-1.58l-.936-1.781a91.735 91.735 0 0 1-3.372 1.547l.863 1.814Zm6.813-3.294a94.525 94.525 0 0 0 3.299-1.847l-1.074-1.707c-1.012.594-2.09 1.2-3.23 1.809l1.005 1.745Zm6.514-3.823a86.003 86.003 0 0 0 3.122-2.106l-1.213-1.617c-.89.63-1.909 1.324-3.052 2.058l1.143 1.665Zm6.151-4.366a45.228 45.228 0 0 0 1.37-1.127l.073-.064.02-.018.005-.004.002-.002h.001l-.691-.742-.692-.741h.001-.001l-.003.003a45.673 45.673 0 0 1-1.381 1.14l1.296 1.555Z" fill="#fff"/></svg>